<mxfile host="app.diagrams.net" modified="2022-04-13T11:33:38.962Z" agent="5.0 (Windows NT 10.0; Win64; x64) AppleWebKit/537.36 (KHTML, like Gecko) Chrome/100.0.4896.79 Safari/537.36" etag="a2ur8uR7MpwPJDOJi-OE" version="17.4.3" type="github">
  <diagram id="aMV6ZaO-u6llb11fVrh8" name="Page-1">
    <mxGraphModel dx="1996" dy="1126" grid="1" gridSize="10" guides="1" tooltips="1" connect="1" arrows="1" fold="1" page="1" pageScale="1" pageWidth="850" pageHeight="1100" math="0" shadow="0">
      <root>
        <mxCell id="0" />
        <mxCell id="1" parent="0" />
        <mxCell id="3dhQU3cEc3T1mFe6f6_r-1" value="" style="ellipse;html=1;shape=startState;fillColor=#000000;strokeColor=#ff0000;" vertex="1" parent="1">
          <mxGeometry x="115" y="280" width="30" height="30" as="geometry" />
        </mxCell>
        <mxCell id="3dhQU3cEc3T1mFe6f6_r-2" value="" style="edgeStyle=orthogonalEdgeStyle;html=1;verticalAlign=bottom;endArrow=open;endSize=8;strokeColor=#ff0000;rounded=0;" edge="1" source="3dhQU3cEc3T1mFe6f6_r-1" parent="1" target="3dhQU3cEc3T1mFe6f6_r-4">
          <mxGeometry relative="1" as="geometry">
            <mxPoint x="135" y="330" as="targetPoint" />
          </mxGeometry>
        </mxCell>
        <mxCell id="3dhQU3cEc3T1mFe6f6_r-19" style="edgeStyle=orthogonalEdgeStyle;rounded=0;orthogonalLoop=1;jettySize=auto;html=1;" edge="1" parent="1" source="3dhQU3cEc3T1mFe6f6_r-4" target="3dhQU3cEc3T1mFe6f6_r-20">
          <mxGeometry relative="1" as="geometry">
            <mxPoint x="117.5" y="809.9999999999998" as="targetPoint" />
          </mxGeometry>
        </mxCell>
        <mxCell id="3dhQU3cEc3T1mFe6f6_r-4" value="Asteptare Selectie Cafea" style="shape=umlFrame;whiteSpace=wrap;html=1;width=125;height=30;" vertex="1" parent="1">
          <mxGeometry x="-50" y="370" width="360" height="370" as="geometry" />
        </mxCell>
        <mxCell id="3dhQU3cEc3T1mFe6f6_r-10" value="" style="edgeStyle=orthogonalEdgeStyle;rounded=0;orthogonalLoop=1;jettySize=auto;html=1;" edge="1" parent="1" source="3dhQU3cEc3T1mFe6f6_r-5" target="3dhQU3cEc3T1mFe6f6_r-9">
          <mxGeometry relative="1" as="geometry">
            <Array as="points">
              <mxPoint x="150" y="540" />
              <mxPoint x="150" y="540" />
            </Array>
          </mxGeometry>
        </mxCell>
        <mxCell id="3dhQU3cEc3T1mFe6f6_r-5" value="Selectare Tip Cafea" style="rounded=1;whiteSpace=wrap;html=1;absoluteArcSize=1;arcSize=14;strokeWidth=2;" vertex="1" parent="1">
          <mxGeometry x="80" y="440" width="140" height="70" as="geometry" />
        </mxCell>
        <mxCell id="3dhQU3cEc3T1mFe6f6_r-6" value="" style="ellipse;html=1;shape=startState;fillColor=#000000;strokeColor=#ff0000;" vertex="1" parent="1">
          <mxGeometry x="-40" y="440" width="30" height="30" as="geometry" />
        </mxCell>
        <mxCell id="3dhQU3cEc3T1mFe6f6_r-7" value="" style="edgeStyle=orthogonalEdgeStyle;html=1;verticalAlign=bottom;endArrow=open;endSize=8;strokeColor=#ff0000;rounded=0;entryX=0;entryY=0.25;entryDx=0;entryDy=0;" edge="1" source="3dhQU3cEc3T1mFe6f6_r-6" parent="1" target="3dhQU3cEc3T1mFe6f6_r-5">
          <mxGeometry relative="1" as="geometry">
            <mxPoint x="-5" y="530" as="targetPoint" />
          </mxGeometry>
        </mxCell>
        <mxCell id="3dhQU3cEc3T1mFe6f6_r-9" value="Cafea Selectata" style="rhombus;whiteSpace=wrap;html=1;rounded=1;arcSize=14;strokeWidth=2;" vertex="1" parent="1">
          <mxGeometry x="110" y="560" width="80" height="80" as="geometry" />
        </mxCell>
        <mxCell id="3dhQU3cEc3T1mFe6f6_r-11" value="" style="ellipse;html=1;shape=endState;fillColor=#000000;strokeColor=#ff0000;" vertex="1" parent="1">
          <mxGeometry x="135" y="690" width="30" height="30" as="geometry" />
        </mxCell>
        <mxCell id="3dhQU3cEc3T1mFe6f6_r-17" value="Anulare Comanda" style="html=1;verticalAlign=bottom;endArrow=block;rounded=0;entryX=1;entryY=0.5;entryDx=0;entryDy=0;exitX=1;exitY=0.5;exitDx=0;exitDy=0;" edge="1" parent="1" source="3dhQU3cEc3T1mFe6f6_r-9" target="3dhQU3cEc3T1mFe6f6_r-5">
          <mxGeometry x="-0.0006" y="-20" width="80" relative="1" as="geometry">
            <mxPoint x="200" y="600" as="sourcePoint" />
            <mxPoint x="280" y="600" as="targetPoint" />
            <Array as="points">
              <mxPoint x="290" y="600" />
              <mxPoint x="290" y="470" />
            </Array>
            <mxPoint as="offset" />
          </mxGeometry>
        </mxCell>
        <mxCell id="3dhQU3cEc3T1mFe6f6_r-18" value="Selectie Acceptata" style="html=1;verticalAlign=bottom;endArrow=block;rounded=0;entryX=0.5;entryY=0;entryDx=0;entryDy=0;" edge="1" parent="1" source="3dhQU3cEc3T1mFe6f6_r-9" target="3dhQU3cEc3T1mFe6f6_r-11">
          <mxGeometry x="0.2" y="10" width="80" relative="1" as="geometry">
            <mxPoint x="20" y="650" as="sourcePoint" />
            <mxPoint x="100" y="650" as="targetPoint" />
            <mxPoint as="offset" />
          </mxGeometry>
        </mxCell>
        <mxCell id="3dhQU3cEc3T1mFe6f6_r-33" value="" style="edgeStyle=orthogonalEdgeStyle;rounded=0;orthogonalLoop=1;jettySize=auto;html=1;" edge="1" parent="1" source="3dhQU3cEc3T1mFe6f6_r-20" target="3dhQU3cEc3T1mFe6f6_r-32">
          <mxGeometry relative="1" as="geometry" />
        </mxCell>
        <mxCell id="3dhQU3cEc3T1mFe6f6_r-20" value="Selctare Optiuni Suplimentare" style="shape=umlFrame;whiteSpace=wrap;html=1;width=93;height=60;" vertex="1" parent="1">
          <mxGeometry x="5.61999999999999" y="780" width="248.75" height="350" as="geometry" />
        </mxCell>
        <mxCell id="3dhQU3cEc3T1mFe6f6_r-29" value="" style="edgeStyle=orthogonalEdgeStyle;rounded=0;orthogonalLoop=1;jettySize=auto;html=1;" edge="1" parent="1" source="3dhQU3cEc3T1mFe6f6_r-23" target="3dhQU3cEc3T1mFe6f6_r-28">
          <mxGeometry relative="1" as="geometry" />
        </mxCell>
        <mxCell id="3dhQU3cEc3T1mFe6f6_r-23" value="Selectare cantitate zahar" style="rounded=1;whiteSpace=wrap;html=1;absoluteArcSize=1;arcSize=14;strokeWidth=2;" vertex="1" parent="1">
          <mxGeometry x="70.62" y="850" width="140" height="70" as="geometry" />
        </mxCell>
        <mxCell id="3dhQU3cEc3T1mFe6f6_r-26" style="edgeStyle=orthogonalEdgeStyle;rounded=0;orthogonalLoop=1;jettySize=auto;html=1;entryX=0.5;entryY=0;entryDx=0;entryDy=0;" edge="1" parent="1" source="3dhQU3cEc3T1mFe6f6_r-24" target="3dhQU3cEc3T1mFe6f6_r-23">
          <mxGeometry relative="1" as="geometry" />
        </mxCell>
        <mxCell id="3dhQU3cEc3T1mFe6f6_r-24" value="" style="ellipse;html=1;shape=startState;fillColor=#000000;strokeColor=#ff0000;" vertex="1" parent="1">
          <mxGeometry x="125.62" y="800" width="30" height="30" as="geometry" />
        </mxCell>
        <mxCell id="3dhQU3cEc3T1mFe6f6_r-31" style="edgeStyle=orthogonalEdgeStyle;rounded=0;orthogonalLoop=1;jettySize=auto;html=1;entryX=0.5;entryY=0;entryDx=0;entryDy=0;" edge="1" parent="1" source="3dhQU3cEc3T1mFe6f6_r-28" target="3dhQU3cEc3T1mFe6f6_r-30">
          <mxGeometry relative="1" as="geometry" />
        </mxCell>
        <mxCell id="3dhQU3cEc3T1mFe6f6_r-28" value="Selectare Lapte&lt;br&gt;&lt;br&gt;DA/NU" style="rounded=1;whiteSpace=wrap;html=1;absoluteArcSize=1;arcSize=14;strokeWidth=2;" vertex="1" parent="1">
          <mxGeometry x="70.62" y="950" width="140" height="70" as="geometry" />
        </mxCell>
        <mxCell id="3dhQU3cEc3T1mFe6f6_r-30" value="" style="ellipse;html=1;shape=endState;fillColor=#000000;strokeColor=#ff0000;" vertex="1" parent="1">
          <mxGeometry x="125.62" y="1060" width="30" height="30" as="geometry" />
        </mxCell>
        <mxCell id="3dhQU3cEc3T1mFe6f6_r-32" value="Preparare Cafea" style="whiteSpace=wrap;html=1;" vertex="1" parent="1">
          <mxGeometry x="350.005" y="925" width="120" height="60" as="geometry" />
        </mxCell>
      </root>
    </mxGraphModel>
  </diagram>
</mxfile>
